<svg width="110" height="110" viewBox="0 0 110 110" fill="none" xmlns="http://www.w3.org/2000/svg">
<g opacity="0.9">
<path d="M46.5724 27.0247C49.1673 25.3632 52.4362 26.4856 53.8741 29.5316C54.0772 29.9618 53.6662 30.4763 53.2063 30.4873C52.0753 30.5144 50.7684 30.928 49.5049 31.7371C48.1546 32.6019 47.1052 33.7571 46.4924 34.9341C46.0667 35.7517 44.8412 36.3204 44.4773 35.5495C43.0393 32.5033 43.9774 28.6866 46.5724 27.0247Z" fill="white"/>
<path d="M10.7983 77.1748C11.7208 88.6049 19.7737 93.686 29.9592 90.9103C67.7189 78.3267 19.412 42.2875 21.6365 26.5157C11.2962 39.0513 8.39525 47.4003 10.7983 77.1748Z" fill="white"/>
<path d="M21.6365 26.5157C19.412 42.2875 67.7189 78.3267 29.9592 90.9103C19.7737 93.686 11.7208 88.6049 10.7983 77.1748C8.39525 47.4003 11.2962 39.0513 21.6365 26.5157ZM21.6365 26.5157C30.8397 19.8844 44.6927 3.12901 68.4016 21.0907C70.6128 22.7659 73.4792 23.4433 76.2445 22.6898L87.905 19.5122C92.2943 18.316 96.8021 20.5909 97.8184 25.0182C100.217 35.4676 100.604 51.1174 82.3079 60.2841C81.813 60.5321 81.2779 60.7255 80.7541 60.8858C67.7178 64.8767 59.8141 78.3516 50.4959 100.713" stroke="white" stroke-width="6" stroke-linecap="round"/>
</g>
</svg>
